<mxfile host="app.diagrams.net" modified="2021-03-17T00:06:15.778Z" agent="5.0 (Macintosh; Intel Mac OS X 10_14_3) AppleWebKit/537.36 (KHTML, like Gecko) Chrome/89.0.4389.82 Safari/537.36" etag="GT8NYr5uehm7Du-euDn6" version="14.4.8" type="github">
  <diagram id="3228e29e-7158-1315-38df-8450db1d8a1d" name="Page-1">
    <mxGraphModel dx="1113" dy="582" grid="1" gridSize="10" guides="1" tooltips="1" connect="1" arrows="1" fold="1" page="1" pageScale="1" pageWidth="600" pageHeight="250" background="#ffffff" math="0" shadow="0">
      <root>
        <mxCell id="0" />
        <mxCell id="1" parent="0" />
        <mxCell id="aMB2SkQLuwcF9kNnRCJI-1" value="&lt;font style=&quot;font-size: 30px;&quot;&gt;消息&lt;/font&gt;" style="rounded=1;whiteSpace=wrap;html=1;strokeWidth=5;fontSize=30;strokeColor=#67AB9F;fillColor=#67AB9F;" vertex="1" parent="1">
          <mxGeometry x="165" y="70" width="120" height="60" as="geometry" />
        </mxCell>
        <mxCell id="aMB2SkQLuwcF9kNnRCJI-2" value="&lt;font style=&quot;font-size: 30px&quot;&gt;头标志&lt;/font&gt;" style="rounded=1;whiteSpace=wrap;html=1;strokeWidth=5;fillColor=#FDD276;strokeColor=#FDD276;fontSize=30;" vertex="1" parent="1">
          <mxGeometry x="430" y="70" width="120" height="60" as="geometry" />
        </mxCell>
        <mxCell id="aMB2SkQLuwcF9kNnRCJI-3" value="&lt;font style=&quot;font-size: 30px&quot;&gt;尾标志&lt;/font&gt;" style="rounded=1;whiteSpace=wrap;html=1;strokeWidth=5;fillColor=#F19C99;strokeColor=#F19C99;fontSize=30;" vertex="1" parent="1">
          <mxGeometry x="40" y="70" width="120" height="60" as="geometry" />
        </mxCell>
        <mxCell id="aMB2SkQLuwcF9kNnRCJI-4" value="&lt;font style=&quot;font-size: 30px&quot;&gt;校验字段&lt;/font&gt;" style="rounded=1;whiteSpace=wrap;html=1;strokeWidth=5;fontSize=30;fillColor=#7EA6E0;strokeColor=#7EA6E0;" vertex="1" parent="1">
          <mxGeometry x="290" y="70" width="140" height="60" as="geometry" />
        </mxCell>
        <mxCell id="aMB2SkQLuwcF9kNnRCJI-5" value="" style="shape=curlyBracket;whiteSpace=wrap;html=1;rounded=1;strokeColor=#7EA6E0;strokeWidth=5;fillColor=#7EA6E0;fontSize=30;fontColor=#000000;direction=north;" vertex="1" parent="1">
          <mxGeometry x="40" y="150" width="510" height="20" as="geometry" />
        </mxCell>
        <mxCell id="aMB2SkQLuwcF9kNnRCJI-6" value="通过整个消息生成校验字段" style="text;html=1;strokeColor=none;fillColor=none;align=center;verticalAlign=middle;whiteSpace=wrap;rounded=0;fontSize=30;fontColor=#000000;" vertex="1" parent="1">
          <mxGeometry x="80" y="200" width="430" height="20" as="geometry" />
        </mxCell>
      </root>
    </mxGraphModel>
  </diagram>
</mxfile>
